<svg xmlns="http://www.w3.org/2000/svg" viewBox="0 0 1600 900" preserveAspectRatio="xMidYMid slice">
  <defs>
    <linearGradient id="sky" x1="0" y1="0" x2="0" y2="1">
      <stop offset="0%" stop-color="#E9FBFF"/>
      <stop offset="55%" stop-color="#CFF6FF"/>
      <stop offset="100%" stop-color="#B7E9FF"/>
    </linearGradient>

    <linearGradient id="wave1" x1="0" y1="0" x2="1" y2="1">
      <stop offset="0%" stop-color="#A7E9FF" stop-opacity="0.85"/>
      <stop offset="100%" stop-color="#6FD3FF" stop-opacity="0.65"/>
    </linearGradient>

    <linearGradient id="wave2" x1="1" y1="0" x2="0" y2="1">
      <stop offset="0%" stop-color="#7EDBFF" stop-opacity="0.75"/>
      <stop offset="100%" stop-color="#4BC6FF" stop-opacity="0.55"/>
    </linearGradient>

    <linearGradient id="wave3" x1="0" y1="0" x2="1" y2="0">
      <stop offset="0%" stop-color="#6AD0FF" stop-opacity="0.65"/>
      <stop offset="100%" stop-color="#3FBFFF" stop-opacity="0.45"/>
    </linearGradient>
  </defs>

  <rect width="1600" height="900" fill="url(#sky)"/>
  <rect width="1600" height="260" fill="#FFFFFF" opacity="0.55"/>

  <path d="M0,250 C240,190 380,310 620,250 C880,185 1010,295 1260,240 C1420,205 1520,215 1600,230 L1600,900 L0,900 Z"
        fill="url(#wave1)"/>
  <path d="M0,360 C220,300 420,420 660,360 C920,295 1040,425 1320,355 C1460,320 1540,330 1600,345 L1600,900 L0,900 Z"
        fill="url(#wave2)"/>
  <path d="M0,520 C260,460 420,620 700,520 C980,420 1100,610 1400,510 C1500,470 1560,470 1600,485 L1600,900 L0,900 Z"
        fill="url(#wave3)"/>
</svg>